<svg width="96" height="96" xmlns="http://www.w3.org/2000/svg" xmlns:xlink="http://www.w3.org/1999/xlink" xml:space="preserve" overflow="hidden"><g transform="translate(-54 -282)"><path d="M122.3 365.2 125 322.6 127.8 359.7 122.3 365.2ZM116.1 368 76.1 368 79.6 312 84 312 84 320C84 321.1 84.9 322 86 322 87.1 322 88 321.1 88 320L88 312 108 312 108 320C108 321.1 108.9 322 110 322 111.1 322 112 321.1 112 320L112 312 119.6 312 116.1 368ZM88 302C88 297.4 91.1 293.6 95.3 292.4 93.8 294.6 93 297.2 93 300L93 306 88 306 88 302ZM100.6 292.3C104.9 293.4 108 297.3 108 302L108 306 97 306 97 300C97 296.9 98.4 294.2 100.6 292.3ZM107 290C112.5 290 117 294.5 117 300L117 306 112 306 112 302C112 297 109.4 292.6 105.4 290.1 105.9 290.1 106.5 290 107 290ZM130 309.8C129.9 307.7 128.1 306 126 306L121.7 306C123.7 306 125.4 307.5 125.7 309.4 125.4 307.5 123.8 306 121.7 306L121 306 121 300C121 292.3 114.7 286 107 286 104.3 286 101.8 286.8 99.7 288.1 99.1 288 98.6 288 98 288 90.3 288 84 294.3 84 302L84 306 77.8 306C75.7 306 73.9 307.6 73.8 309.8L70.1 369.8C70 372.1 71.8 374 74.1 374L118.1 374 120.4 374C121.5 374 122.6 373.5 123.3 372.7L132.8 363.3C133.6 362.5 134.1 361.3 134 360.2L130 309.8Z"/></g></svg>